<?xml version="1.0" encoding="UTF-8"?>
<svg version="1.1" xmlns="http://www.w3.org/2000/svg" width="1024" height="1024">
<path d="M0 0 C337.92 0 675.84 0 1024 0 C1024 337.92 1024 675.84 1024 1024 C686.08 1024 348.16 1024 0 1024 C0 686.08 0 348.16 0 0 Z " fill="#FDFDFD" transform="translate(0,0)"/>
<path d="M0 0 C1.80815186 0.22598877 1.80815186 0.22598877 3.65283203 0.45654297 C24.23677359 3.06207677 44.06881068 7.23781244 64 13 C65.10811035 13.31839844 66.2162207 13.63679687 67.35791016 13.96484375 C83.7661493 18.75586072 99.42044225 24.99229757 115 32 C115.95986816 32.43103027 116.91973633 32.86206055 117.90869141 33.30615234 C130.07271441 38.81827374 141.64696027 44.97718366 153 52 C153.76554199 52.46664062 154.53108398 52.93328125 155.31982422 53.4140625 C170.78386762 62.84697134 185.12354859 73.35975371 199 85 C200.08182279 85.89478334 201.16386442 86.78930216 202.24609375 87.68359375 C208.16019695 92.59874508 213.78268192 97.62658722 219.1484375 103.1484375 C221.05026439 105.12379933 221.05026439 105.12379933 223.625 107.0625 C226.49126061 109.40076523 228.72567148 112.06177562 231.12109375 114.87109375 C232.9591323 116.9536946 234.87996347 118.88092387 236.875 120.8125 C241.66587162 125.54830413 245.80026235 130.74200833 250 136 C250.91404297 137.11306578 251.82946131 138.22500323 252.74609375 139.3359375 C270.28247239 160.71153679 285.20198782 184.03163289 297.05371094 209.02636719 C298.0658251 211.13728846 299.11306312 213.22849965 300.1640625 215.3203125 C306.53786922 228.16566682 311.39919159 241.43109556 316 255 C316.29535645 255.86157715 316.59071289 256.7231543 316.89501953 257.61083984 C334.19678722 308.45455953 339.49956981 365.90021403 331 419 C330.7684688 420.57276063 330.5379456 422.14567009 330.30859375 423.71875 C329.75524805 427.37885112 329.12189728 431.01821366 328.43896484 434.65625 C328.13196118 436.2954242 327.83350328 437.93621159 327.54150391 439.578125 C322.53576729 467.47078673 313.35129661 494.09243642 302 520 C301.62552734 520.86334961 301.25105469 521.72669922 300.86523438 522.61621094 C292.31672017 542.12776485 281.20262434 560.56481824 269 578 C268.3819751 578.89187012 268.3819751 578.89187012 267.75146484 579.80175781 C262.17569304 587.83446786 256.32233043 595.53284302 250 603 C249.55962402 603.52529297 249.11924805 604.05058594 248.66552734 604.59179688 C236.08516839 619.59196052 222.91146409 634.27690777 208 647 C207.10023438 647.78890625 206.20046875 648.5778125 205.2734375 649.390625 C152.32577107 695.47661823 86.77298769 724.10894092 18 736 C16.98470215 736.17837402 15.9694043 736.35674805 14.92333984 736.54052734 C-2.86718246 739.48415935 -20.58320794 740.32926379 -38.5925293 740.26074219 C-41.93101192 740.25002084 -45.26895537 740.26071114 -48.60742188 740.2734375 C-68.65397653 740.28644276 -88.30772105 738.78075986 -108 735 C-109.34070557 734.74694092 -109.34070557 734.74694092 -110.70849609 734.48876953 C-179.21088011 721.40456907 -243.07106232 690.18027701 -294.6796875 643.1015625 C-296.69397731 641.27717206 -298.74148614 639.50906198 -300.8125 637.75 C-309.49506521 630.17922668 -317.58803933 621.80983044 -325 613 C-325.7940625 612.09507812 -326.588125 611.19015625 -327.40625 610.2578125 C-335.23378552 601.28355881 -342.15856015 591.73784671 -349 582 C-349.49564453 581.29907227 -349.99128906 580.59814453 -350.50195312 579.87597656 C-356.72187834 571.06511345 -362.54871418 562.09983957 -367.96337891 552.77197266 C-368.94056907 551.10158967 -369.94409309 549.44669253 -370.94921875 547.79296875 C-396.06240863 505.66597477 -411.00167885 454.59094559 -416 406 C-416.14356934 404.67476318 -416.14356934 404.67476318 -416.29003906 403.32275391 C-417.28736288 392.6328009 -417.2218443 381.90332208 -417.24023438 371.17578125 C-417.24985969 367.79922069 -417.28092626 364.42329142 -417.3125 361.046875 C-417.40860258 341.35761188 -415.55949177 321.98967291 -411.625 302.6875 C-411.41004883 301.61105225 -411.19509766 300.53460449 -410.97363281 299.42553711 C-404.30635979 266.60746729 -393.65087532 234.68796243 -378.04052734 204.99560547 C-376.91779961 202.8423496 -375.8274107 200.67433631 -374.73828125 198.50390625 C-368.62484743 186.44806994 -361.55898787 175.19630261 -354 164 C-353.57831543 163.36835938 -353.15663086 162.73671875 -352.72216797 162.0859375 C-338.43765879 140.69813693 -321.02379094 118.33091163 -301.1640625 101.8515625 C-298.75673161 99.79186062 -296.47078345 97.62857747 -294.17211914 95.44921875 C-286.79436073 88.47337328 -279.11455589 82.09696615 -271 76 C-270.39542969 75.54383301 -269.79085937 75.08766602 -269.16796875 74.61767578 C-253.46057803 62.80819807 -237.19610497 52.5151995 -220 43 C-219.20577637 42.55624023 -218.41155273 42.11248047 -217.59326172 41.65527344 C-152.85192874 5.64691662 -73.53870337 -9.62795875 0 0 Z " fill="#FDFDFD" transform="translate(555,131)"/>
<path d="M0 0 C1.08474609 0.00128906 2.16949219 0.00257813 3.28710938 0.00390625 C14.89999077 0.13082299 24.969502 2.62117114 33.76953125 10.53515625 C42.92186696 20.63058978 43.4375 29.53216534 43.4375 43.375 C93.9275 43.375 144.4175 43.375 196.4375 43.375 C196.4375 38.095 196.4375 32.815 196.4375 27.375 C197.28564901 24.02952335 197.80956949 22.19469851 199.4375 19.375 C199.85128906 18.62863281 200.26507812 17.88226563 200.69140625 17.11328125 C206.37170857 7.74929513 213.98021301 3.20827982 224.4375 0.375 C228.47941236 -0.12407103 232.4323709 -0.14317595 236.5 -0.0625 C237.51126953 -0.06958984 238.52253906 -0.07667969 239.56445312 -0.08398438 C251.59702049 0.01673898 259.91319981 3.13748223 268.5703125 11.4140625 C275.82834115 18.99347988 278.72843208 25.69329601 278.53125 36.2109375 C278.52448242 36.9021167 278.51771484 37.5932959 278.51074219 38.30541992 C278.49321466 39.99536541 278.46631689 41.68520932 278.4375 43.375 C279.64696289 43.35928955 280.85642578 43.3435791 282.10253906 43.32739258 C286.64250885 43.27258805 291.18245014 43.23846831 295.72265625 43.21020508 C297.6777846 43.1952325 299.63288003 43.17484719 301.58789062 43.14868164 C320.92435103 42.89659588 337.50402699 44.8679304 352.12109375 58.8984375 C360.79266786 68.16956395 368.57232881 80.0290724 368.55775452 93.14593506 C368.55981651 94.58038216 368.55981651 94.58038216 368.56192017 96.04380798 C368.55832489 97.08606033 368.55472961 98.12831268 368.55102539 99.20214844 C368.55117142 100.30488602 368.55131744 101.4076236 368.5514679 102.54377747 C368.55077093 106.19066328 368.54298857 109.8374981 368.53515625 113.484375 C368.5332913 116.01214571 368.53186776 118.53991679 368.53086853 121.06768799 C368.5274398 127.04223869 368.51955734 133.01676748 368.50951904 138.9913094 C368.49833739 145.79417224 368.49284228 152.59703595 368.48782361 159.39990568 C368.47737418 173.39161393 368.45978752 187.38330596 368.4375 201.375 C366.4804132 202.04531719 364.52178887 202.71114683 362.5625 203.375 C361.47195313 203.74625 360.38140625 204.1175 359.2578125 204.5 C356.4375 205.375 356.4375 205.375 354.4375 205.375 C354.4375 193.825 354.4375 182.275 354.4375 170.375 C201.9775 170.375 49.5175 170.375 -107.5625 170.375 C-107.48 213.213125 -107.3975 256.05125 -107.3125 300.1875 C-107.29670898 313.71339111 -107.28091797 327.23928223 -107.26464844 341.17504883 C-107.23142829 353.30032397 -107.23142829 353.30032397 -107.19293213 365.42558289 C-107.17592807 370.82596592 -107.16973935 376.22623292 -107.17095947 381.62663269 C-107.17247514 388.51885866 -107.15342743 395.41077965 -107.12141085 402.30293024 C-107.11290119 404.83005042 -107.11104832 407.35720405 -107.11667585 409.8843323 C-107.12332659 413.3044495 -107.10538783 416.72361007 -107.08148193 420.14363098 C-107.08924274 421.12684169 -107.09700356 422.11005239 -107.10499954 423.12305737 C-106.96387525 434.60425725 -102.62857646 444.52922219 -95.04296875 453.08984375 C-84.03853283 463.61233357 -70.45687175 463.04261475 -56.28710938 462.84399414 C-54.14721247 462.83278518 -52.0073019 462.82396971 -49.86738586 462.81735229 C-45.27892655 462.79911098 -40.69089832 462.76611662 -36.10261536 462.72206306 C-28.83968137 462.65449626 -21.57705301 462.63291724 -14.31384277 462.61973572 C6.33267092 462.57586527 26.97859245 462.48055016 47.62451172 462.31713867 C59.04252128 462.22716248 70.45989231 462.18033666 81.8782649 462.18025678 C89.09165445 462.17774775 96.30204528 462.12231418 103.51477814 462.02724946 C108.00942818 461.98073572 112.50300128 461.98474433 116.99781227 462.00277328 C119.07310519 462.00111455 121.14850369 461.97904375 123.2233181 461.93445015 C140.50090295 461.5813996 140.50090295 461.5813996 147.16525507 467.66634983 C153.4375 474.20333435 153.4375 474.20333435 153.4375 477.375 C123.84862065 477.48921712 94.25975177 477.57762773 64.67069804 477.63032665 C61.17247346 477.63657971 57.67424932 477.64305137 54.17602539 477.6496582 C53.13143466 477.65162553 53.13143466 477.65162553 52.06574108 477.6536326 C40.80976616 477.67535205 29.55391973 477.7147543 18.29802088 477.76076398 C6.73680223 477.80762535 -4.82432629 477.83494184 -16.38563806 477.84544247 C-22.87460789 477.85194938 -29.36328688 477.86719636 -35.85216331 477.90365028 C-41.96627078 477.93771881 -48.079969 477.94803085 -54.19416237 477.94053841 C-56.43179171 477.94190808 -58.66943548 477.95177518 -60.90698242 477.97102737 C-77.70970492 478.10844578 -90.12714372 476.40637112 -103.5625 465.375 C-104.33335937 464.75238281 -105.10421875 464.12976563 -105.8984375 463.48828125 C-115.15505468 455.19523685 -121.95358362 441.89610744 -122.75202358 429.41158104 C-122.82912626 425.78546458 -122.8434109 422.16393198 -122.83665466 418.5369873 C-122.84111182 417.13080134 -122.84642743 415.72461787 -122.85252339 414.31843805 C-122.86665694 410.46804491 -122.86836756 406.61773266 -122.86792648 402.7673173 C-122.86957883 398.60895029 -122.88265328 394.45061622 -122.89411926 390.29226685 C-122.91693755 381.20517967 -122.92488669 372.1181159 -122.92994571 363.03100395 C-122.93320689 357.35158314 -122.93973198 351.67216907 -122.9469471 345.99275208 C-122.96651011 330.25288868 -122.98291566 314.51303155 -122.98582363 298.77315521 C-122.9860112 297.76653813 -122.98619877 296.75992104 -122.98639202 295.7228004 C-122.98675826 293.68233204 -122.98712196 291.64186367 -122.98748314 289.60139531 C-122.98766595 288.58856962 -122.98784876 287.57574394 -122.98803711 286.53222656 C-122.98821766 285.51815729 -122.98839821 284.50408802 -122.98858423 283.45928937 C-122.99212354 267.03910434 -123.01913206 250.61905064 -123.056535 234.19891113 C-123.09467204 217.32070837 -123.11398151 200.44257068 -123.11428314 183.5643239 C-123.11486655 174.09587171 -123.1232831 164.62757615 -123.15228081 155.15916443 C-123.17686715 147.09433013 -123.18402895 139.02970957 -123.16903328 130.96484786 C-123.16189352 126.85541293 -123.16259377 122.74639942 -123.18544388 118.63701248 C-123.29971627 96.74132315 -122.93322983 79.13150388 -108.5625 61.375 C-108.01980469 60.68921875 -107.47710937 60.0034375 -106.91796875 59.296875 C-99.74719606 51.23656342 -87.03824252 44.3197547 -76.21972656 43.11386108 C-73.78528804 43.0315986 -71.36894801 43.03651683 -68.93359375 43.08203125 C-67.62093285 43.08839851 -67.62093285 43.08839851 -66.28175354 43.09489441 C-63.52083928 43.11152019 -60.76068895 43.14914034 -58 43.1875 C-56.11394293 43.20256772 -54.22787427 43.21625244 -52.34179688 43.22851562 C-47.74840917 43.26137063 -43.15558353 43.31303865 -38.5625 43.375 C-38.57555176 42.34947021 -38.58860352 41.32394043 -38.60205078 40.26733398 C-38.61260761 38.90608956 -38.62284462 37.54484262 -38.6328125 36.18359375 C-38.6469519 35.17250549 -38.6469519 35.17250549 -38.66137695 34.14099121 C-38.71878584 23.67662642 -34.86148275 16.85285137 -27.7109375 9.4609375 C-19.25173595 1.54096792 -11.42668769 -0.25892316 0 0 Z " fill="#E32B1A" transform="translate(385.5625,240.625)"/>
<path d="M0 0 C1.80815186 0.22598877 1.80815186 0.22598877 3.65283203 0.45654297 C24.23677359 3.06207677 44.06881068 7.23781244 64 13 C65.10811035 13.31839844 66.2162207 13.63679687 67.35791016 13.96484375 C83.7661493 18.75586072 99.42044225 24.99229757 115 32 C115.95986816 32.43103027 116.91973633 32.86206055 117.90869141 33.30615234 C130.07271441 38.81827374 141.64696027 44.97718366 153 52 C153.76554199 52.46664062 154.53108398 52.93328125 155.31982422 53.4140625 C170.78386762 62.84697134 185.12354859 73.35975371 199 85 C200.08182279 85.89478334 201.16386442 86.78930216 202.24609375 87.68359375 C208.16019695 92.59874508 213.78268192 97.62658722 219.1484375 103.1484375 C221.05026439 105.12379933 221.05026439 105.12379933 223.625 107.0625 C226.49126061 109.40076523 228.72567148 112.06177562 231.12109375 114.87109375 C232.9591323 116.9536946 234.87996347 118.88092387 236.875 120.8125 C241.66587162 125.54830413 245.80026235 130.74200833 250 136 C250.91404297 137.11306578 251.82946131 138.22500323 252.74609375 139.3359375 C270.28247239 160.71153679 285.20198782 184.03163289 297.05371094 209.02636719 C298.0658251 211.13728846 299.11306312 213.22849965 300.1640625 215.3203125 C306.53786922 228.16566682 311.39919159 241.43109556 316 255 C316.29535645 255.86157715 316.59071289 256.7231543 316.89501953 257.61083984 C334.19678722 308.45455953 339.49956981 365.90021403 331 419 C330.7684688 420.57276063 330.5379456 422.14567009 330.30859375 423.71875 C329.75524805 427.37885112 329.12189728 431.01821366 328.43896484 434.65625 C328.13196118 436.2954242 327.83350328 437.93621159 327.54150391 439.578125 C322.53576729 467.47078673 313.35129661 494.09243642 302 520 C301.62552734 520.86334961 301.25105469 521.72669922 300.86523438 522.61621094 C292.31672017 542.12776485 281.20262434 560.56481824 269 578 C268.3819751 578.89187012 268.3819751 578.89187012 267.75146484 579.80175781 C262.17569304 587.83446786 256.32233043 595.53284302 250 603 C249.55962402 603.52529297 249.11924805 604.05058594 248.66552734 604.59179688 C236.08516839 619.59196052 222.91146409 634.27690777 208 647 C207.10023438 647.78890625 206.20046875 648.5778125 205.2734375 649.390625 C152.32577107 695.47661823 86.77298769 724.10894092 18 736 C16.98470215 736.17837402 15.9694043 736.35674805 14.92333984 736.54052734 C-2.86718246 739.48415935 -20.58320794 740.32926379 -38.5925293 740.26074219 C-41.93101192 740.25002084 -45.26895537 740.26071114 -48.60742188 740.2734375 C-68.65397653 740.28644276 -88.30772105 738.78075986 -108 735 C-109.34070557 734.74694092 -109.34070557 734.74694092 -110.70849609 734.48876953 C-179.21088011 721.40456907 -243.07106232 690.18027701 -294.6796875 643.1015625 C-296.69397731 641.27717206 -298.74148614 639.50906198 -300.8125 637.75 C-309.49506521 630.17922668 -317.58803933 621.80983044 -325 613 C-325.7940625 612.09507812 -326.588125 611.19015625 -327.40625 610.2578125 C-335.23378552 601.28355881 -342.15856015 591.73784671 -349 582 C-349.49564453 581.29907227 -349.99128906 580.59814453 -350.50195312 579.87597656 C-356.72187834 571.06511345 -362.54871418 562.09983957 -367.96337891 552.77197266 C-368.94056907 551.10158967 -369.94409309 549.44669253 -370.94921875 547.79296875 C-396.06240863 505.66597477 -411.00167885 454.59094559 -416 406 C-416.14356934 404.67476318 -416.14356934 404.67476318 -416.29003906 403.32275391 C-417.28736288 392.6328009 -417.2218443 381.90332208 -417.24023438 371.17578125 C-417.24985969 367.79922069 -417.28092626 364.42329142 -417.3125 361.046875 C-417.40860258 341.35761188 -415.55949177 321.98967291 -411.625 302.6875 C-411.41004883 301.61105225 -411.19509766 300.53460449 -410.97363281 299.42553711 C-404.30635979 266.60746729 -393.65087532 234.68796243 -378.04052734 204.99560547 C-376.91779961 202.8423496 -375.8274107 200.67433631 -374.73828125 198.50390625 C-368.62484743 186.44806994 -361.55898787 175.19630261 -354 164 C-353.57831543 163.36835938 -353.15663086 162.73671875 -352.72216797 162.0859375 C-338.43765879 140.69813693 -321.02379094 118.33091163 -301.1640625 101.8515625 C-298.75673161 99.79186062 -296.47078345 97.62857747 -294.17211914 95.44921875 C-286.79436073 88.47337328 -279.11455589 82.09696615 -271 76 C-270.39542969 75.54383301 -269.79085937 75.08766602 -269.16796875 74.61767578 C-253.46057803 62.80819807 -237.19610497 52.5151995 -220 43 C-219.20577637 42.55624023 -218.41155273 42.11248047 -217.59326172 41.65527344 C-152.85192874 5.64691662 -73.53870337 -9.62795875 0 0 Z M-255 86 C-256.01449219 86.75796875 -257.02898437 87.5159375 -258.07421875 88.296875 C-277.21235653 102.72767173 -295.20127126 118.96106962 -311 137 C-311.46599609 137.53189941 -311.93199219 138.06379883 -312.41210938 138.61181641 C-371.16945532 206.10171963 -398.96415864 288.41368118 -399.125 377.125 C-399.12767883 377.95702942 -399.13035767 378.78905884 -399.13311768 379.64630127 C-399.17369561 396.25579386 -397.90117747 412.11545639 -394.8125 428.4375 C-394.57716049 429.69247787 -394.57716049 429.69247787 -394.33706665 430.97280884 C-387.75456072 465.93193352 -376.27866229 498.46917239 -359.98242188 530.09277344 C-359.3392284 531.34143831 -358.69975494 532.5920281 -358.06445312 533.84472656 C-349.72622452 550.26557211 -339.76040441 565.59737311 -328.45703125 580.12548828 C-327.0231468 581.970221 -325.60432805 583.82574325 -324.1875 585.68359375 C-318.96413052 592.48588524 -313.48573068 598.93844126 -307.62109375 605.1953125 C-305.18362636 607.80351158 -302.80517562 610.45356284 -300.4375 613.125 C-293.32534281 621.02037877 -285.93283198 628.24245369 -277.62109375 634.87109375 C-275.32386783 636.73694789 -273.1628944 638.67022621 -271 640.6875 C-257.94007504 652.37636522 -242.986717 661.99718799 -228 671 C-227.18337891 671.49209961 -226.36675781 671.98419922 -225.52539062 672.49121094 C-206.70727613 683.74546852 -187.17011902 693.25510646 -166.6875 701.0625 C-165.50220703 701.51568604 -164.31691406 701.96887207 -163.09570312 702.43579102 C-156.70786735 704.81229316 -150.37439866 706.75963971 -143.74072266 708.31787109 C-141.27008174 708.9327803 -138.91301857 709.66347834 -136.51171875 710.50390625 C-111.22667885 719.21565391 -82.66653129 722.56291839 -56 723 C-54.20731689 723.03867188 -54.20731689 723.03867188 -52.37841797 723.078125 C36.76899642 724.89031006 122.51366611 695.53937695 191 638 C191.82491943 637.31260742 191.82491943 637.31260742 192.66650391 636.61132812 C200.4332599 630.11855292 207.83691046 623.34275075 215 616.1875 C215.69367676 615.49462891 216.38735352 614.80175781 217.10205078 614.08789062 C253.78776214 577.00371028 280.60232476 530.91633353 298 482 C298.4328833 480.81591553 298.4328833 480.81591553 298.87451172 479.60791016 C306.82406417 457.8605829 311.16424228 434.93176483 314 412 C314.1313031 410.94841202 314.1313031 410.94841202 314.26525879 409.87557983 C315.8207668 397.08897009 316.31529597 384.43995104 316.26074219 371.56420898 C316.25001965 368.56799034 316.26071582 365.57237261 316.2734375 362.57617188 C316.28753264 344.92354146 314.98707462 327.55822527 311.75 310.1875 C311.42684814 308.42684204 311.42684814 308.42684204 311.09716797 306.63061523 C299.17818027 243.41908611 270.09222342 183.88024824 227 136 C226.50790039 135.45150391 226.01580078 134.90300781 225.50878906 134.33789062 C192.95664048 98.20648823 153.99469931 69.69626845 110 49 C109.27135742 48.65646484 108.54271484 48.31292969 107.79199219 47.95898438 C96.15719359 42.55411403 84.22280423 38.22956131 72.0625 34.1875 C71.36875275 33.95670746 70.67500549 33.72591492 69.9602356 33.48812866 C53.30844045 27.97368357 36.73300425 23.64644307 19.44482422 20.61572266 C17.26575599 20.22623931 15.08967933 19.81926291 12.91845703 19.38818359 C-5.42614846 15.75856598 -23.66999911 15.60210413 -42.3125 15.5625 C-43.54822754 15.5563266 -44.78395508 15.5501532 -46.05712891 15.54379272 C-121.00444531 15.30333799 -195.15089419 41.1345759 -255 86 Z " fill="#2275CC" transform="translate(555,131)"/>
<path d="M0 0 C1.08474609 0.00128906 2.16949219 0.00257813 3.28710938 0.00390625 C14.89999077 0.13082299 24.969502 2.62117114 33.76953125 10.53515625 C42.92186696 20.63058978 43.4375 29.53216534 43.4375 43.375 C93.9275 43.375 144.4175 43.375 196.4375 43.375 C196.4375 38.095 196.4375 32.815 196.4375 27.375 C197.28564901 24.02952335 197.80956949 22.19469851 199.4375 19.375 C199.85128906 18.62863281 200.26507812 17.88226563 200.69140625 17.11328125 C206.37170857 7.74929513 213.98021301 3.20827982 224.4375 0.375 C228.47941236 -0.12407103 232.4323709 -0.14317595 236.5 -0.0625 C237.51126953 -0.06958984 238.52253906 -0.07667969 239.56445312 -0.08398438 C251.59702049 0.01673898 259.91319981 3.13748223 268.5703125 11.4140625 C275.82834115 18.99347988 278.72843208 25.69329601 278.53125 36.2109375 C278.52448242 36.9021167 278.51771484 37.5932959 278.51074219 38.30541992 C278.49321466 39.99536541 278.46631689 41.68520932 278.4375 43.375 C279.64696289 43.35928955 280.85642578 43.3435791 282.10253906 43.32739258 C286.64250885 43.27258805 291.18245014 43.23846831 295.72265625 43.21020508 C297.6777846 43.1952325 299.63288003 43.17484719 301.58789062 43.14868164 C320.92435103 42.89659588 337.50402699 44.8679304 352.12109375 58.8984375 C360.79266786 68.16956395 368.57232881 80.0290724 368.55775452 93.14593506 C368.55981651 94.58038216 368.55981651 94.58038216 368.56192017 96.04380798 C368.55832489 97.08606033 368.55472961 98.12831268 368.55102539 99.20214844 C368.55117142 100.30488602 368.55131744 101.4076236 368.5514679 102.54377747 C368.55077093 106.19066328 368.54298857 109.8374981 368.53515625 113.484375 C368.5332913 116.01214571 368.53186776 118.53991679 368.53086853 121.06768799 C368.5274398 127.04223869 368.51955734 133.01676748 368.50951904 138.9913094 C368.49833739 145.79417224 368.49284228 152.59703595 368.48782361 159.39990568 C368.47737418 173.39161393 368.45978752 187.38330596 368.4375 201.375 C366.4804132 202.04531719 364.52178887 202.71114683 362.5625 203.375 C361.47195313 203.74625 360.38140625 204.1175 359.2578125 204.5 C356.4375 205.375 356.4375 205.375 354.4375 205.375 C354.4375 193.825 354.4375 182.275 354.4375 170.375 C201.9775 170.375 49.5175 170.375 -107.5625 170.375 C-107.48 213.213125 -107.3975 256.05125 -107.3125 300.1875 C-107.29670898 313.71339111 -107.28091797 327.23928223 -107.26464844 341.17504883 C-107.23142829 353.30032397 -107.23142829 353.30032397 -107.19293213 365.42558289 C-107.17592807 370.82596592 -107.16973935 376.22623292 -107.17095947 381.62663269 C-107.17247514 388.51885866 -107.15342743 395.41077965 -107.12141085 402.30293024 C-107.11290119 404.83005042 -107.11104832 407.35720405 -107.11667585 409.8843323 C-107.12332659 413.3044495 -107.10538783 416.72361007 -107.08148193 420.14363098 C-107.08924274 421.12684169 -107.09700356 422.11005239 -107.10499954 423.12305737 C-106.96387525 434.60425725 -102.62857646 444.52922219 -95.04296875 453.08984375 C-84.03853283 463.61233357 -70.45687175 463.04261475 -56.28710938 462.84399414 C-54.14721247 462.83278518 -52.0073019 462.82396971 -49.86738586 462.81735229 C-45.27892655 462.79911098 -40.69089832 462.76611662 -36.10261536 462.72206306 C-28.83968137 462.65449626 -21.57705301 462.63291724 -14.31384277 462.61973572 C6.33267092 462.57586527 26.97859245 462.48055016 47.62451172 462.31713867 C59.04252128 462.22716248 70.45989231 462.18033666 81.8782649 462.18025678 C89.09165445 462.17774775 96.30204528 462.12231418 103.51477814 462.02724946 C108.00942818 461.98073572 112.50300128 461.98474433 116.99781227 462.00277328 C119.07310519 462.00111455 121.14850369 461.97904375 123.2233181 461.93445015 C140.50090295 461.5813996 140.50090295 461.5813996 147.16525507 467.66634983 C153.4375 474.20333435 153.4375 474.20333435 153.4375 477.375 C123.84862065 477.48921712 94.25975177 477.57762773 64.67069804 477.63032665 C61.17247346 477.63657971 57.67424932 477.64305137 54.17602539 477.6496582 C53.13143466 477.65162553 53.13143466 477.65162553 52.06574108 477.6536326 C40.80976616 477.67535205 29.55391973 477.7147543 18.29802088 477.76076398 C6.73680223 477.80762535 -4.82432629 477.83494184 -16.38563806 477.84544247 C-22.87460789 477.85194938 -29.36328688 477.86719636 -35.85216331 477.90365028 C-41.96627078 477.93771881 -48.079969 477.94803085 -54.19416237 477.94053841 C-56.43179171 477.94190808 -58.66943548 477.95177518 -60.90698242 477.97102737 C-77.70970492 478.10844578 -90.12714372 476.40637112 -103.5625 465.375 C-104.33335937 464.75238281 -105.10421875 464.12976563 -105.8984375 463.48828125 C-115.15505468 455.19523685 -121.95358362 441.89610744 -122.75202358 429.41158104 C-122.82912626 425.78546458 -122.8434109 422.16393198 -122.83665466 418.5369873 C-122.84111182 417.13080134 -122.84642743 415.72461787 -122.85252339 414.31843805 C-122.86665694 410.46804491 -122.86836756 406.61773266 -122.86792648 402.7673173 C-122.86957883 398.60895029 -122.88265328 394.45061622 -122.89411926 390.29226685 C-122.91693755 381.20517967 -122.92488669 372.1181159 -122.92994571 363.03100395 C-122.93320689 357.35158314 -122.93973198 351.67216907 -122.9469471 345.99275208 C-122.96651011 330.25288868 -122.98291566 314.51303155 -122.98582363 298.77315521 C-122.9860112 297.76653813 -122.98619877 296.75992104 -122.98639202 295.7228004 C-122.98675826 293.68233204 -122.98712196 291.64186367 -122.98748314 289.60139531 C-122.98766595 288.58856962 -122.98784876 287.57574394 -122.98803711 286.53222656 C-122.98821766 285.51815729 -122.98839821 284.50408802 -122.98858423 283.45928937 C-122.99212354 267.03910434 -123.01913206 250.61905064 -123.056535 234.19891113 C-123.09467204 217.32070837 -123.11398151 200.44257068 -123.11428314 183.5643239 C-123.11486655 174.09587171 -123.1232831 164.62757615 -123.15228081 155.15916443 C-123.17686715 147.09433013 -123.18402895 139.02970957 -123.16903328 130.96484786 C-123.16189352 126.85541293 -123.16259377 122.74639942 -123.18544388 118.63701248 C-123.29971627 96.74132315 -122.93322983 79.13150388 -108.5625 61.375 C-108.01980469 60.68921875 -107.47710937 60.0034375 -106.91796875 59.296875 C-99.74719606 51.23656342 -87.03824252 44.3197547 -76.21972656 43.11386108 C-73.78528804 43.0315986 -71.36894801 43.03651683 -68.93359375 43.08203125 C-67.62093285 43.08839851 -67.62093285 43.08839851 -66.28175354 43.09489441 C-63.52083928 43.11152019 -60.76068895 43.14914034 -58 43.1875 C-56.11394293 43.20256772 -54.22787427 43.21625244 -52.34179688 43.22851562 C-47.74840917 43.26137063 -43.15558353 43.31303865 -38.5625 43.375 C-38.57555176 42.34947021 -38.58860352 41.32394043 -38.60205078 40.26733398 C-38.61260761 38.90608956 -38.62284462 37.54484262 -38.6328125 36.18359375 C-38.6469519 35.17250549 -38.6469519 35.17250549 -38.66137695 34.14099121 C-38.71878584 23.67662642 -34.86148275 16.85285137 -27.7109375 9.4609375 C-19.25173595 1.54096792 -11.42668769 -0.25892316 0 0 Z M-100.80078125 73.86328125 C-103.7171659 78.02123098 -105.1578681 82.5341782 -106.5625 87.375 C-106.8925 88.365 -107.2225 89.355 -107.5625 90.375 C-107.5625 112.155 -107.5625 133.935 -107.5625 156.375 C44.8975 156.375 197.3575 156.375 354.4375 156.375 C356.73542515 119.91310928 356.73542515 119.91310928 352.4375 84.375 C351.7775 84.045 351.1175 83.715 350.4375 83.375 C350.086875 82.22 349.73625 81.065 349.375 79.875 C346.15692628 70.88048394 336.56693995 63.86235141 328.4375 59.375 C321.79860453 56.85778308 315.31672253 57.11973437 308.28515625 57.1796875 C306.40225136 57.18393234 306.40225136 57.18393234 304.48130798 57.18826294 C301.16535653 57.19752873 297.84968699 57.21545701 294.53381348 57.2376709 C291.14170755 57.25823405 287.74957234 57.26728691 284.35742188 57.27734375 C277.71737083 57.29934876 271.07745167 57.33278505 264.4375 57.375 C264.42291748 58.18654541 264.40833496 58.99809082 264.39331055 59.83422852 C264.31852368 63.53578193 264.22196239 67.23646379 264.125 70.9375 C264.10244141 72.21431641 264.07988281 73.49113281 264.05664062 74.80664062 C263.86861164 81.38765497 263.64233878 86.57383614 260.4375 92.375 C259.756875 93.921875 259.756875 93.921875 259.0625 95.5 C254.83351825 102.98204463 247.20604619 108.45645842 239.01171875 110.86328125 C228.941416 112.86511685 220.37659267 111.37037531 211.4375 106.375 C207.63161542 103.69552072 205.22436944 100.99368919 202.75 97.0625 C202.16863281 96.15886719 201.58726562 95.25523437 200.98828125 94.32421875 C194.83160726 82.61568258 196.94180949 70.99135634 196.4375 57.375 C141.3275 57.375 86.2175 57.375 29.4375 57.375 C29.1075 66.945 28.7775 76.515 28.4375 86.375 C23.00388039 98.60064412 19.35690035 103.92712269 7.4375 109.375 C6.60734375 109.75527344 5.7771875 110.13554687 4.921875 110.52734375 C-2.30717568 112.99385947 -11.11594542 111.27957062 -18.5625 110.375 C-18.8925 109.385 -19.2225 108.395 -19.5625 107.375 C-20.8825 107.375 -22.2025 107.375 -23.5625 107.375 C-23.8925 106.385 -24.2225 105.395 -24.5625 104.375 C-26.25159768 102.78750218 -28.04651943 101.40108082 -29.87109375 99.97265625 C-31.71175183 98.23402079 -32.5146854 96.65773894 -33.5625 94.375 C-34.078125 93.859375 -34.59375 93.34375 -35.125 92.8125 C-38.28056321 89.65693679 -37.75913797 85.49267103 -37.87890625 81.30078125 C-37.89968735 80.6169487 -37.92046844 79.93311615 -37.94187927 79.2285614 C-38.00716154 77.0483079 -38.06616017 74.86793595 -38.125 72.6875 C-38.16820553 71.20767014 -38.21182047 69.72785217 -38.25585938 68.24804688 C-38.36282083 64.62382378 -38.46414823 60.99946811 -38.5625 57.375 C-43.95185067 57.27547367 -49.3406561 57.20322341 -54.73071289 57.15527344 C-56.56088593 57.13526626 -58.39099592 57.10805149 -60.22094727 57.07324219 C-62.86490512 57.02423997 -65.50801165 57.00192239 -68.15234375 56.984375 C-68.95896957 56.96372986 -69.7655954 56.94308472 -70.59666443 56.92181396 C-83.13071832 56.91695985 -92.90841433 64.73046374 -100.80078125 73.86328125 Z " fill="#273958" transform="translate(385.5625,240.625)"/>
<path d="M0 0 C10.7313056 -0.57795091 18.49063323 1.21691267 27.171875 7.98828125 C32.09084811 12.50252872 35.50459822 17.44527526 36.40234375 24.13671875 C36.68878046 31.35307595 35.31673261 36.93046227 32.0234375 43.3125 C31.58773438 44.158125 31.15203125 45.00375 30.703125 45.875 C27.75614526 51.15701833 24.3924265 55.25263378 20.01171875 59.40234375 C18.14675254 61.19403034 16.45656388 63.03840016 14.7734375 65 C11.60573703 68.68354161 8.32804041 72.25236822 5.0234375 75.8125 C1.18900919 79.94777168 -2.59527908 84.11294221 -6.2890625 88.375 C-12.23403395 95.20070796 -18.38003336 101.84546977 -24.52734375 108.48828125 C-29.05727988 113.38800808 -33.52381943 118.34255992 -37.9765625 123.3125 C-39.51808891 125.0209599 -41.05975603 126.72929284 -42.6015625 128.4375 C-45.19046503 131.31158285 -47.75711796 134.20069601 -50.2890625 137.125 C-53.96098233 141.34471206 -57.77029063 145.43353111 -61.57348633 149.53442383 C-64.80621841 153.02630087 -67.96869465 156.56557993 -71.078125 160.16796875 C-73.10814101 162.46113499 -75.18932216 164.69989508 -77.27856445 166.93896484 C-82.39891718 172.42727091 -87.25390964 178.03112049 -91.95703125 183.88671875 C-94.26093468 186.65407664 -96.7280017 189.15436123 -99.3125 191.65625 C-101.6627383 193.99545431 -103.79665299 196.5013437 -105.9609375 199.01171875 C-108.42136519 201.8202302 -110.94631242 204.56711879 -113.4765625 207.3125 C-116.51560784 210.61263347 -119.53812709 213.9219976 -122.4765625 217.3125 C-125.88160615 221.24139652 -129.40176461 225.0618303 -132.92529297 228.8840332 C-135.53196988 231.71728014 -138.09422363 234.57865867 -140.6015625 237.5 C-147.40026999 245.25149547 -153.34670909 251.29349408 -162.9765625 255.3125 C-163.60949219 255.63089844 -164.24242187 255.94929687 -164.89453125 256.27734375 C-173.02920265 260.04114693 -182.77436807 259.28109117 -191.1640625 256.75 C-204.44821332 251.62586256 -212.78354227 242.77487461 -221.9765625 232.3125 C-222.67910156 231.52101563 -223.38164063 230.72953125 -224.10546875 229.9140625 C-225.18984158 228.68124884 -226.26845111 227.44332959 -227.33984375 226.19921875 C-229.35530022 223.87591213 -231.41504712 221.59501535 -233.4765625 219.3125 C-236.74047098 215.69573655 -239.96447199 212.04860392 -243.1640625 208.375 C-245.24867414 206.00285571 -247.36084894 203.65693935 -249.4765625 201.3125 C-254.30883526 195.95233189 -259.07475106 190.54240426 -263.76171875 185.0546875 C-264.79163729 183.84893324 -265.82158603 182.64320477 -266.8515625 181.4375 C-267.37121582 180.82898193 -267.89086914 180.22046387 -268.42626953 179.59350586 C-271.45548783 176.05626142 -274.52804833 172.56857423 -277.6640625 169.125 C-281.49193548 164.91158586 -285.0748079 160.53502012 -288.6484375 156.10546875 C-291.06472016 153.2067404 -293.59189516 150.44834428 -296.1640625 147.6875 C-306.12946605 136.79364271 -310.64648114 127.86898665 -310.33203125 112.91015625 C-309.85088218 108.04050464 -308.50326975 104.45911712 -305.9765625 100.3125 C-305.4196875 99.3225 -304.8628125 98.3325 -304.2890625 97.3125 C-298.94949567 90.38549438 -292.85603969 84.24452874 -284.9765625 80.3125 C-284.34878906 79.99410156 -283.72101563 79.67570313 -283.07421875 79.34765625 C-273.62329826 75.41128437 -261.56705599 75.97488335 -252.0390625 79.3125 C-245.84200714 82.06075933 -240.96719519 85.77340074 -235.9765625 90.3125 C-235.08195313 91.12332031 -234.18734375 91.93414063 -233.265625 92.76953125 C-231.40306488 94.46774783 -229.54499445 96.17090142 -227.69140625 97.87890625 C-225.20547538 100.10730184 -222.66753769 102.19348101 -220.0390625 104.25 C-215.05393417 108.16518823 -210.43215746 112.40752063 -205.7890625 116.71484375 C-202.89898621 119.38415033 -199.95968465 121.98206274 -196.98046875 124.55078125 C-195.44631932 125.89951691 -193.93788701 127.27755597 -192.44140625 128.66796875 C-191.56613281 129.47878906 -190.69085937 130.28960938 -189.7890625 131.125 C-188.99113281 131.87394531 -188.19320312 132.62289062 -187.37109375 133.39453125 C-184.96644284 135.32060563 -182.88150359 136.33730663 -179.9765625 137.3125 C-172.45576118 131.00207764 -165.10085558 124.56937343 -157.9765625 117.8125 C-151.86310316 112.01718857 -145.59279909 106.46868425 -139.1640625 101.02734375 C-135.43545076 97.86850491 -131.81270002 94.59728667 -128.19140625 91.31640625 C-118.00454731 82.09972435 -107.44692767 73.29784808 -96.79296875 64.62890625 C-93.63870679 62.03462422 -90.52466843 59.39628225 -87.4140625 56.75 C-82.01712425 52.16434548 -76.54381993 47.69081771 -70.9765625 43.3125 C-69.95949219 42.508125 -69.95949219 42.508125 -68.921875 41.6875 C-62.11649949 36.34592224 -55.18104264 31.17480189 -48.24462891 26.00537109 C-46.69564937 24.84922211 -45.14852832 23.69058006 -43.60302734 22.52978516 C-15.19126175 1.19381232 -15.19126175 1.19381232 0 0 Z " fill="#6DB515" transform="translate(762.9765625,459.6875)"/>
<path d="M0 0 C4.24722676 2.05715156 6.74598383 4.12540914 9.43359375 8.01953125 C8.04140625 8.85484375 8.04140625 8.85484375 6.62109375 9.70703125 C3.36847541 12.06677397 2.17616828 13.47719418 0.43359375 17.01953125 C0.00844842 19.60164324 0.00844842 19.60164324 0.09643555 22.32543945 C0.09600754 23.36034012 0.09557953 24.39524078 0.09513855 25.46150208 C0.10757095 26.56990952 0.12000336 27.67831696 0.1328125 28.8203125 C0.12516979 31.18294551 0.11667978 33.5455759 0.10742188 35.90820312 C0.10963098 39.62121967 0.12110624 43.33371278 0.14868164 47.04663086 C0.16944604 50.63839442 0.15334152 54.22858018 0.1328125 57.8203125 C0.1513176 58.92264725 0.16982269 60.02498199 0.18888855 61.16072083 C0.12772211 67.62333097 -0.73964801 71.48739853 -4.96720886 76.46037292 C-9.4371207 80.8183717 -13.94435585 83.1438343 -20.25390625 83.33203125 C-26.23688553 83.25353735 -30.607747 81.63188432 -35.1015625 77.6640625 C-41.27404594 70.9517117 -40.89478926 62.81357213 -40.9375 54.2421875 C-40.94652847 53.11687119 -40.95555695 51.99155487 -40.96485901 50.83213806 C-40.97932368 48.4594894 -40.9882388 46.08680119 -40.99194336 43.71411133 C-41.00385651 40.09713363 -41.05309693 36.4818535 -41.10351562 32.86523438 C-41.11297901 30.55339369 -41.12021445 28.2415426 -41.125 25.9296875 C-41.14453232 24.85550064 -41.16406464 23.78131378 -41.18418884 22.67457581 C-41.13846092 15.01618989 -39.50508573 9.97306004 -34.05271912 4.50013733 C-25.09988932 -3.33587098 -11.10320798 -3.0524701 0 0 Z " fill="#FBFBFC" transform="translate(401.56640625,255.98046875)"/>
<path d="M0 0 C1.51207031 -0.06864258 1.51207031 -0.06864258 3.0546875 -0.13867188 C10.38956778 -0.24793499 15.50031247 1.25459507 20.875 6.4375 C21.37 7.9225 21.37 7.9225 21.875 9.4375 C20.92625 10.015 19.9775 10.5925 19 11.1875 C15.93514949 13.39419236 15.13780726 14.07031996 13.875 17.4375 C13.59020316 19.91784561 13.59020316 19.91784561 13.65136719 22.61401367 C13.65086365 23.64576218 13.65036011 24.67751068 13.64984131 25.74052429 C13.65711243 26.85095596 13.66438354 27.96138763 13.671875 29.10546875 C13.66132322 31.46680238 13.64956622 33.82813087 13.63671875 36.18945312 C13.62642129 39.90462844 13.62496808 43.61908615 13.64501953 47.33422852 C13.65983972 50.92525575 13.63726123 54.51455222 13.609375 58.10546875 C13.62474304 59.20577927 13.64011108 60.30608978 13.65594482 61.43974304 C13.56272778 68.88668921 12.0102848 73.90935576 6.875 79.4375 C4.58399426 81.15052319 2.49862757 82.22659497 -0.125 83.4375 C-1.115 83.9325 -1.115 83.9325 -2.125 84.4375 C-8.95431298 85.21182731 -14.49234403 84.51458951 -20.125 80.4375 C-24.18170768 76.66981984 -26.81134445 72.40154234 -27.39915466 66.84674072 C-27.40979446 65.92568542 -27.42043427 65.00463013 -27.43139648 64.05566406 C-27.44738388 63.00397034 -27.46337128 61.95227661 -27.47984314 60.86871338 C-27.48520584 59.74156921 -27.49056854 58.61442505 -27.49609375 57.453125 C-27.50512222 56.28295837 -27.5141507 55.11279175 -27.52345276 53.90716553 C-27.53794853 51.43260249 -27.54684031 48.95800117 -27.55053711 46.48339844 C-27.56241387 42.71483006 -27.61159371 38.94790959 -27.66210938 35.1796875 C-27.67157638 32.77084129 -27.67881008 30.36198506 -27.68359375 27.953125 C-27.71289223 26.27455414 -27.71289223 26.27455414 -27.74278259 24.56207275 C-27.70235291 17.48222282 -26.67117967 12.04492304 -22.125 6.4375 C-15.03922341 0.80918798 -8.82415202 0.15993776 0 0 Z " fill="#FBFBFC" transform="translate(623.125,254.5625)"/>
<path d="M0 0 C0.06970278 12.06606265 0.12291401 24.1320769 0.15543652 36.19830036 C0.1710506 41.80195065 0.19221083 47.40546254 0.22631836 53.0090332 C0.25906396 58.42311642 0.27688499 63.83706703 0.28463173 69.25124168 C0.29014804 71.31036654 0.30091965 73.36948466 0.31719017 75.42855263 C0.46661769 95.13378711 -2.1723145 109.70202234 -16.3046875 124.48828125 C-29.68459556 136.95680427 -44.56509561 138.60597242 -61.98828125 138.390625 C-63.78573471 138.38314688 -65.58319642 138.37746139 -67.38066101 138.37347412 C-72.06773146 138.35834127 -76.75429091 138.31916904 -81.44116211 138.2746582 C-86.24130342 138.233436 -91.04152885 138.21540607 -95.84179688 138.1953125 C-105.22808674 138.15266029 -114.61400056 138.08456244 -124 138 C-121.40660875 132.35754538 -117.98318616 127.7448536 -113 124 C-107.93248381 122.63812589 -102.98540625 122.76151112 -97.78125 122.91015625 C-96.31352197 122.9139956 -94.845774 122.91296553 -93.37805176 122.90733337 C-89.53345021 122.90353873 -85.69188195 122.95653733 -81.84796143 123.0246582 C-75.69901107 123.12376006 -69.54926139 123.13430197 -63.39964294 123.14742851 C-61.26716626 123.15987369 -59.13614262 123.1957645 -57.00402832 123.2358551 C-49.75070219 123.30488322 -43.65927798 123.00476202 -37 120 C-35.62134766 119.39671875 -35.62134766 119.39671875 -34.21484375 118.78125 C-24.80666637 113.48814163 -19.41229076 105.46274793 -15.83868408 95.42329407 C-14.33340618 89.27913439 -14.62854876 83.09929803 -14.78923225 76.81960106 C-14.84901028 74.29836041 -14.87484562 71.77879163 -14.89097595 69.25691223 C-14.93888385 62.09576628 -15.01544185 54.93642136 -15.18823242 47.77709961 C-15.2920716 43.37408702 -15.33085116 38.97433518 -15.32983208 34.57015419 C-15.3415445 32.90951841 -15.37670946 31.24885168 -15.43742561 29.5892849 C-15.75243671 20.75162415 -15.30295316 14.63031856 -9.30378628 7.77048969 C-1.83074396 0 -1.83074396 0 0 0 Z " fill="#233756" transform="translate(754,580)"/>
<path d="M0 0 C17.82 0 35.64 0 54 0 C54 17.49 54 34.98 54 53 C36.18 53 18.36 53 0 53 C0 35.51 0 18.02 0 0 Z " fill="#DCE4EA" transform="translate(409,445)"/>
<path d="M0 0 C17.82 0 35.64 0 54 0 C54 17.49 54 34.98 54 53 C36.18 53 18.36 53 0 53 C0 35.51 0 18.02 0 0 Z " fill="#DBE3E9" transform="translate(330,445)"/>
<path d="M0 0 C17.49 0 34.98 0 53 0 C53 17.49 53 34.98 53 53 C35.51 53 18.02 53 0 53 C0 35.51 0 18.02 0 0 Z " fill="#DCE4EB" transform="translate(331,531)"/>
<path d="M0 0 C0.33 0 0.66 0 1 0 C1 25.41 1 50.82 1 77 C0.67 77 0.34 77 0 77 C-0.33 56.21 -0.66 35.42 -1 14 C-11.82537702 25.62720733 -11.82537702 25.62720733 -22.30712891 37.53027344 C-23.82934072 39.31220153 -25.35199265 41.09375179 -26.875 42.875 C-27.65278809 43.78499756 -27.65278809 43.78499756 -28.44628906 44.71337891 C-32.23245279 49.13215244 -36.09257275 53.47693743 -40 57.7890625 C-46.63760563 65.1267281 -53.03766433 72.67695104 -59.46240234 80.20068359 C-60.45379386 81.3608226 -61.44622904 82.52007095 -62.43994141 83.67822266 C-63.36265635 84.75369854 -64.28381925 85.8305081 -65.20336914 86.90869141 C-66.10826529 87.96816923 -67.01761223 89.02386202 -67.93139648 90.07568359 C-70.36993155 92.91926052 -72.57621971 95.79782494 -74.640625 98.92578125 C-81.17557887 108.57854748 -81.17557887 108.57854748 -86.8046875 109.87890625 C-90.31557886 109.87537417 -93.55081626 109.6344484 -97 109 C-97 108.34 -97 107.68 -97 107 C-96.319375 106.46375 -95.63875 105.9275 -94.9375 105.375 C-91.93307225 102.9458882 -89.64440285 100.38953013 -87.14453125 97.46484375 C-84.53110433 94.46106891 -81.83337601 91.5430184 -79.125 88.625 C-74.03172442 83.1287504 -69.00029435 77.58109079 -64 72 C-62.45847359 70.2915401 -60.91680647 68.58320716 -59.375 66.875 C-54.62180547 61.59003672 -49.92088495 56.26621496 -45.3203125 50.84765625 C-39.77875632 44.32995761 -34.14583793 37.9415311 -28.29907227 31.69580078 C-24.3539059 27.45375626 -20.71290297 23.00952717 -17.0859375 18.4921875 C-14.53489865 15.44431712 -11.77930402 12.6878083 -8.92578125 9.92578125 C-6.24037695 7.24037695 -3.79639836 4.36931012 -1.34765625 1.46875 C-0.90292969 0.9840625 -0.45820312 0.499375 0 0 Z " fill="#D1DBE3" transform="translate(739,595)"/>
<path d="M0 0 C14.99616908 11.28474262 31.7355164 14.905725 50.19140625 12.6015625 C60.85535368 10.36721161 75.51999775 4.468501 82.20063782 -4.63630676 C85.04050273 -6.78857194 88.08742524 -6.34443054 91.50073242 -6.2487793 C92.6425573 -6.23480606 92.6425573 -6.23480606 93.80744934 -6.22055054 C96.32390786 -6.18617113 98.83940756 -6.13028002 101.35546875 -6.07421875 C103.09993956 -6.0461869 104.84443239 -6.01949636 106.58894348 -5.99409485 C111.18088022 -5.92362146 115.77229123 -5.83490616 120.36383057 -5.74243164 C125.04901332 -5.65128614 129.73446369 -5.57733604 134.41992188 -5.50195312 C143.61362566 -5.351496 152.8068658 -5.18177261 162 -5 C162 -4.67 162 -4.34 162 -4 C138.57 -4 115.14 -4 91 -4 C90.67 -3.01 90.34 -2.02 90 -1 C87.97075971 0.6994516 85.97319927 2.2353245 83.8125 3.75 C83.18537109 4.19102051 82.55824219 4.63204102 81.91210938 5.08642578 C64.05405589 17.35603246 45.21484911 22.74731864 23.69140625 19.41015625 C13.15148848 17.37827318 2.14374985 12.51978444 -5.25351334 4.58174324 C-12.19249184 -2.42671272 -17.68829063 -4.09163878 -27.46703577 -4.29869151 C-30.437089 -4.30800633 -33.40426949 -4.26797012 -36.37402344 -4.22705078 C-38.52356768 -4.23410201 -40.67310128 -4.24554826 -42.82260132 -4.2610321 C-48.62813342 -4.29050437 -54.43188247 -4.2588592 -60.2372694 -4.21586847 C-66.31515725 -4.18137558 -72.39283769 -4.20360111 -78.47076416 -4.21969604 C-89.96665824 -4.24157889 -101.46183885 -4.21278069 -112.95763421 -4.165573 C-126.05081783 -4.11428819 -139.14378721 -4.11980767 -152.23704481 -4.12999368 C-179.15826431 -4.1496701 -206.07897116 -4.09835244 -233 -4 C-233 -4.33 -233 -4.66 -233 -5 C-204.32831817 -5.26447785 -175.65653861 -5.49806014 -146.98426422 -5.68857425 C-143.59847602 -5.7110985 -140.21268964 -5.73388589 -136.8269043 -5.75683594 C-136.15286153 -5.76140041 -135.47881877 -5.76596489 -134.78435046 -5.77066769 C-123.8734064 -5.84518173 -112.96274846 -5.94100656 -102.05204736 -6.04472218 C-90.85484572 -6.1506863 -79.65760621 -6.23326311 -68.46006733 -6.29549801 C-62.17124771 -6.33119134 -55.8829101 -6.37752115 -49.59438896 -6.44918442 C-43.67570604 -6.51629888 -37.75751219 -6.55512559 -31.83848 -6.57224464 C-29.66599963 -6.583517 -27.49354455 -6.60513206 -25.32128143 -6.63785744 C-22.35409546 -6.68101053 -19.38906123 -6.6868953 -16.4216156 -6.68356323 C-15.56265118 -6.70493123 -14.70368675 -6.72629923 -13.8186931 -6.74831474 C-7.37510883 -6.68025131 -4.42098791 -4.52001585 0 0 Z " fill="#BBC5D0" transform="translate(546,723)"/>
<path d="M0 0 C3.83821825 3.79557138 7.57064379 7.67538391 11.25 11.625 C11.82065186 12.23746582 12.39130371 12.84993164 12.97924805 13.48095703 C17.1786047 18.02587897 21.09053506 22.72332796 24.95703125 27.5546875 C26.87057421 29.845085 28.85973609 31.9228087 31 34 C33.91169594 36.82639235 36.47671106 39.75949405 39 42.9375 C43.08805005 48.04046525 47.48868841 52.76915733 52 57.5 C57.2792438 63.03614427 62.28011935 68.62465471 67.02734375 74.625 C69.66093353 77.79573779 72.56205213 80.62445823 75.56640625 83.44140625 C77 85 77 85 77 87 C72.4709417 87.75600973 68.50838392 87.97409653 64 87 C60.61761116 84.02202722 58.43079708 80.54391604 56.09033203 76.71435547 C54.33399584 73.95282552 52.28296575 71.4366021 50.25 68.875 C46.33585399 63.83598536 42.5896174 58.68723624 38.875 53.5 C32.71128319 44.89972199 26.32047002 36.48525364 19.88671875 28.0859375 C15.81883343 22.77405363 11.80210084 17.42492708 7.80444336 12.06005859 C7.3585083 11.46273926 6.91257324 10.86541992 6.453125 10.25 C6.03869141 9.69441406 5.62425781 9.13882813 5.19726562 8.56640625 C4.05931504 7.07760303 2.86677136 5.63099896 1.671875 4.1875 C0 2 0 2 0 0 Z " fill="#D6DFE6" transform="translate(449,617)"/>
<path d="M0 0 C0.99 0.33 1.98 0.66 3 1 C2.98839844 1.86882812 2.97679687 2.73765625 2.96484375 3.6328125 C2.95582031 4.78523438 2.94679688 5.93765625 2.9375 7.125 C2.92589844 8.26195312 2.91429687 9.39890625 2.90234375 10.5703125 C2.89503899 13.96263976 2.89503899 13.96263976 3.65625 17.0625 C4.08728111 20.74585678 3.20703273 22.58593453 1.5625 25.875 C1.08941406 26.84179688 0.61632812 27.80859375 0.12890625 28.8046875 C-0.24363281 29.52914063 -0.61617187 30.25359375 -1 31 C-2.125 27.25 -2.125 27.25 -1 25 C-0.84655791 23.11527141 -0.75040429 21.22572126 -0.68359375 19.3359375 C-0.62075195 17.65371094 -0.62075195 17.65371094 -0.55664062 15.9375 C-0.51732422 14.761875 -0.47800781 13.58625 -0.4375 12.375 C-0.39431641 11.19164062 -0.35113281 10.00828125 -0.30664062 8.7890625 C-0.20032574 5.85949672 -0.09829358 2.92984412 0 0 Z " fill="#E7321E" transform="translate(651,299)"/>
<path d="M0 0 C-1.39750048 3.15835107 -3.05198234 5.32272825 -5.5 7.75 C-6.41265625 8.67039062 -6.41265625 8.67039062 -7.34375 9.609375 C-9 11 -9 11 -11 11 C-9.60249952 7.84164893 -7.94801766 5.67727175 -5.5 3.25 C-4.8915625 2.63640625 -4.283125 2.0228125 -3.65625 1.390625 C-2 0 -2 0 0 0 Z " fill="#C63129" transform="translate(296,305)"/>
<path d="M0 0 C0.66 0.66 1.32 1.32 2 2 C-1.3 5.3 -4.6 8.6 -8 12 C-8.66 11.67 -9.32 11.34 -10 11 C-6.7 7.37 -3.4 3.74 0 0 Z " fill="#34455E" transform="translate(640,705)"/>
<path d="M0 0 C2.20914 3.31371 2.22481553 4.3446021 2.125 8.1875 C2.10695313 9.08855469 2.08890625 9.98960937 2.0703125 10.91796875 C2.03550781 11.94857422 2.03550781 11.94857422 2 13 C1.67 13 1.34 13 1 13 C1 11.35 1 9.7 1 8 C0.34 8 -0.32 8 -1 8 C-1.125 2.25 -1.125 2.25 0 0 Z " fill="#2D7ACD" transform="translate(886,521)"/>
<path d="M0 0 C1.305239 3.91571701 0.32239848 5.03892997 -1.4375 8.6875 C-1.91058594 9.68136719 -2.38367188 10.67523438 -2.87109375 11.69921875 C-3.42990234 12.83810547 -3.42990234 12.83810547 -4 14 C-5.15006091 10.62700256 -4.85199953 8.65146785 -3.6875 5.3125 C-3.42324219 4.52488281 -3.15898438 3.73726563 -2.88671875 2.92578125 C-2 1 -2 1 0 0 Z " fill="#D33226" transform="translate(654,316)"/>
<path d="M0 0 C0.99 0.33 1.98 0.66 3 1 C0.69 3.31 -1.62 5.62 -4 8 C-4.99 7.67 -5.98 7.34 -7 7 C-4.69 4.69 -2.38 2.38 0 0 Z " fill="#2D3F5B" transform="translate(283,296)"/>
<path d="M0 0 C0.66 0.33 1.32 0.66 2 1 C0.71520959 2.50589388 -0.57804082 4.00457375 -1.875 5.5 C-2.95394531 6.75296875 -2.95394531 6.75296875 -4.0546875 8.03125 C-4.69664062 8.6809375 -5.33859375 9.330625 -6 10 C-6.66 10 -7.32 10 -8 10 C-6.34908222 5.70761377 -3.26245434 3.1206085 0 0 Z " fill="#4187CB" transform="translate(248,238)"/>
<path d="M0 0 C0.68359375 1.734375 0.68359375 1.734375 1 4 C-0.21484375 6.140625 -0.21484375 6.140625 -1.9375 8.25 C-2.50339844 8.95640625 -3.06929687 9.6628125 -3.65234375 10.390625 C-4.31943359 11.18726563 -4.31943359 11.18726563 -5 12 C-5 8.55639368 -4.20408468 7.25204608 -2.5 4.3125 C-2.0359375 3.50425781 -1.571875 2.69601562 -1.09375 1.86328125 C-0.7328125 1.24839844 -0.371875 0.63351562 0 0 Z " fill="#A63431" transform="translate(648,330)"/>
<path d="M0 0 C0.66 0.33 1.32 0.66 2 1 C-0.31 3.64 -2.62 6.28 -5 9 C-5.66 8.67 -6.32 8.34 -7 8 C-4.69 5.36 -2.38 2.72 0 0 Z " fill="#2B77C4" transform="translate(234,253)"/>
<path d="M0 0 C0.66 0.33 1.32 0.66 2 1 C0.02 3.31 -1.96 5.62 -4 8 C-4.66 7.67 -5.32 7.34 -6 7 C-4.02 4.69 -2.04 2.38 0 0 Z " fill="#31435D" transform="translate(749,584)"/>
<path d="M0 0 C0 3 0 3 -1.3125 4.38671875 C-2.875 5.59114583 -4.4375 6.79557292 -6 8 C-6 5 -6 5 -4.6875 3.61328125 C-3.125 2.40885417 -1.5625 1.20442708 0 0 Z " fill="#7BB92F" transform="translate(597,585)"/>
</svg>
